<svg id="Layer_1" xmlns="http://www.w3.org/2000/svg" width="70.9" height="57" viewBox="0 0 70.9 57"><style>.st0,.st1{fill:none;stroke:#2088ff;stroke-width:2;stroke-linecap:round;stroke-linejoin:round;stroke-miterlimit:10}.st1{stroke:#79b8ff}</style><path class="st0" d="M1 56h5.2M64.7 56h5.2"/><path class="st1" d="M15 55.1V33.8h14.7v21.7"/><path class="st0" d="M6.2 47.4V56h58.5V33.8M64.8 11.5V1H6.2v39.2"/><path class="st1" d="M36.3 33.8h20.5v11.1H36.3z"/><path class="st0" d="M69.9 24l-11.3-9.5H15s10.9 8.9 12 9.9c1.2 1.1 2.8 2.2 4.5 2.2 1.7 0 3.3-1 4-2.5"/><path class="st0" d="M38.7 26.2c.5.2 1 .3 1.5.3 1.7 0 3.2-1 3.9-2.5M47.3 26.2c.5.2 1 .3 1.5.3 1.7 0 3.2-1 3.9-2.5M55.9 26.2c.5.2 1 .3 1.5.3 1.7 0 3.2-1 3.9-2.5M64.5 26.2c.5.2 1 .3 1.5.3 1.7 0 3.2-1 3.9-2.5M15 26.2V14.7M44.2 24l-5.4-4.7M35.5 24l-5.4-4.7M52.7 24l-5.4-4.7M61.3 24l-5.4-4.7M6.5 7.4h15.7M58.4 7.4h6.4"/><path class="st1" d="M46.6 34.1v10.6"/></svg>